# xmcd CD database file
# Generated: Fri Sep 19 08:02:14 2003 by KSCD
# 
# Track frame offsets:
#       150
#       14777
#       28782
#       41030
#       55325
#       67460
#       80802
#       92172
#       104780
#       119262
#       133055
#       145507
#       157815
#       172252
#       185482
#       198117
#       211745
#       225010
#       238997
#       251110
#
# Disc length: 3519 seconds
#
# Revision: 1
# Processed by: cddbd v1.4PL0 Copyright (c) Steve Scherf et al.
# Submitted via: Kscd 1.3.3
#
DISCID=2a0dbd14
DTITLE=Various Artist - Paramount Blues-Early Morning Blues
DYEAR=1900
DGENRE=
TTITLE0=Blind Blake/West Coast Blues
TTITLE1=Blind Blake/Early Morning Blues
TTITLE2=Blind Lemon Jefferson/Yo Yo Blues
TTITLE3=Blind Lemon Jefferson/Bootin' Me 'Bout
TTITLE4=Dad Nelson/Scoville Ave. Blues
TTITLE5=Rube Lacy/Ham Hound Crave
TTITLE6=George ThomasFast Stuff Blues
TTITLE7=Ed Bell/Ham Bone Blues
TTITLE8=Freezone/Indian Squaw Blues
TTITLE9=Bobby Grant/Lonesome Atlanta Blues
TTITLE10=Bobby Grant/Nappy Head Blues
TTITLE11=Dad Nelson/Cotton Field Blues
TTITLE12=Skip James /Yola My Blues Away
TTITLE13=George Carter /Ghost Woman Blues
TTITLE14=Blind Lemon Jefferson /Empty House Blues
TTITLE15=Blind Lemon Jefferson /Bed Springs Blues
TTITLE16=Willie Brown /Future Blues
TTITLE17=Teddy Darby /Lawdy Lawdy Worried Blues
TTITLE18=Teddy Darby /My Laona Blues
TTITLE19=Dad Nelson /Red River Blues
EXTD=
EXTT0=
EXTT1=
EXTT2=
EXTT3=
EXTT4=
EXTT5=
EXTT6=
EXTT7=
EXTT8=
EXTT9=
EXTT10=
EXTT11=
EXTT12=
EXTT13=
EXTT14=
EXTT15=
EXTT16=
EXTT17=
EXTT18=
EXTT19=
PLAYORDER=
